<svg width="36" height="33" viewBox="0 0 36 33" fill="none" xmlns="http://www.w3.org/2000/svg">
<path d="M21.3334 27.6667C27.6184 27.6667 30.7617 27.6667 32.7134 25.7133C34.6667 23.7617 34.6667 20.6183 34.6667 14.3333C34.6667 8.04833 34.6667 4.905 32.7134 2.95333C30.7617 1 27.6184 1 21.3334 1H14.6667C8.38171 1 5.23837 1 3.28671 2.95333C1.33337 4.905 1.33337 8.04833 1.33337 14.3333C1.33337 20.6183 1.33337 23.7617 3.28671 25.7133C4.37504 26.8033 5.83337 27.285 8.00004 27.4967" stroke="white" stroke-opacity="1" stroke-width="2" stroke-linecap="round" stroke-linejoin="round"/>
<path d="M18 14.3333V14.3499M11.3334 14.3333V14.3499M24.6667 14.3333V14.3499M21.3334 27.6666C19.2734 27.6666 17.0034 28.4999 14.9317 29.5749C11.6017 31.3033 9.9367 32.1683 9.1167 31.6166C8.2967 31.0666 8.4517 29.3583 8.76337 25.9433L8.83337 25.1666" stroke="white" stroke-opacity="0.49" stroke-width="2" stroke-linecap="round"/>
</svg>
