<svg width="34" height="34" viewBox="0 0 34 34" fill="none" xmlns="http://www.w3.org/2000/svg">
<path d="M20.0333 33.6666H13.9666C13.5865 33.6666 13.2178 33.5368 12.9216 33.2985C12.6255 33.0602 12.4196 32.7279 12.3383 32.3566L11.66 29.2166C10.7551 28.8201 9.89703 28.3243 9.10164 27.7383L6.03997 28.7133C5.67758 28.8288 5.28655 28.8169 4.93184 28.6796C4.57712 28.5423 4.28006 28.2877 4.08997 27.9583L1.04997 22.7066C0.861879 22.3768 0.791274 21.993 0.849707 21.6178C0.90814 21.2427 1.09215 20.8985 1.37164 20.6416L3.74664 18.4749C3.63863 17.4934 3.63863 16.5031 3.74664 15.5216L1.37164 13.3599C1.09176 13.1029 0.907494 12.7584 0.849052 12.3829C0.790609 12.0074 0.861452 11.6232 1.04997 11.2933L4.0833 6.03825C4.27339 5.70878 4.57045 5.45424 4.92517 5.3169C5.27989 5.17956 5.67091 5.16769 6.0333 5.28325L9.09497 6.25825C9.50164 5.95825 9.92497 5.67825 10.3616 5.42492C10.7833 5.18825 11.2166 4.97325 11.66 4.78159L12.34 1.64492C12.4209 1.27358 12.6264 0.941065 12.9222 0.7025C13.2181 0.463935 13.5866 0.333652 13.9666 0.333252H20.0333C20.4134 0.333652 20.7819 0.463935 21.0777 0.7025C21.3736 0.941065 21.579 1.27358 21.66 1.64492L22.3466 4.78325C23.251 5.17975 24.1085 5.67557 24.9033 6.26159L27.9666 5.28659C28.3288 5.17145 28.7194 5.18354 29.0738 5.32085C29.4282 5.45817 29.725 5.71247 29.915 6.04159L32.9483 11.2966C33.335 11.9749 33.2016 12.8333 32.6266 13.3616L30.2516 15.5283C30.3596 16.5097 30.3596 17.5001 30.2516 18.4816L32.6266 20.6483C33.2016 21.1783 33.335 22.0349 32.9483 22.7133L29.915 27.9683C29.7249 28.2977 29.4278 28.5523 29.0731 28.6896C28.7184 28.8269 28.3274 28.8388 27.965 28.7233L24.9033 27.7483C24.1085 28.3338 23.251 28.8291 22.3466 29.2249L21.66 32.3566C21.5787 32.7276 21.3731 33.0597 21.0773 33.298C20.7815 33.5362 20.4131 33.6663 20.0333 33.6666ZM9.69997 24.0483L11.0666 25.0483C11.375 25.2749 11.695 25.4833 12.0283 25.6733C12.3416 25.8549 12.6616 26.0183 12.9933 26.1666L14.5483 26.8483L15.31 30.3333H18.6933L19.455 26.8466L21.01 26.1649C21.6883 25.8649 22.3333 25.4933 22.9316 25.0549L24.2983 24.0549L27.7016 25.1383L29.3933 22.2083L26.755 19.8033L26.9416 18.1166C27.025 17.3783 27.025 16.6333 26.9416 15.8966L26.755 14.2099L29.395 11.7999L27.7016 8.86825L24.3 9.95158L22.9316 8.95158C22.333 8.51107 21.6887 8.13614 21.01 7.83325L19.455 7.15159L18.6933 3.66659H15.31L14.5433 7.15325L12.9933 7.83325C12.3136 8.13093 11.6691 8.50322 11.0716 8.94325L9.7033 9.94325L6.3033 8.85992L4.6083 11.7999L7.24664 14.2016L7.05997 15.8899C6.97664 16.6283 6.97664 17.3733 7.05997 18.1099L7.24664 19.7966L4.6083 22.2016L6.29997 25.1316L9.69997 24.0483ZM16.9933 23.6666C15.2252 23.6666 13.5295 22.9642 12.2793 21.714C11.029 20.4637 10.3266 18.768 10.3266 16.9999C10.3266 15.2318 11.029 13.5361 12.2793 12.2859C13.5295 11.0356 15.2252 10.3333 16.9933 10.3333C18.7614 10.3333 20.4571 11.0356 21.7073 12.2859C22.9576 13.5361 23.66 15.2318 23.66 16.9999C23.66 18.768 22.9576 20.4637 21.7073 21.714C20.4571 22.9642 18.7614 23.6666 16.9933 23.6666ZM16.9933 13.6666C16.3406 13.6672 15.7024 13.8595 15.1579 14.2196C14.6135 14.5797 14.1867 15.0917 13.9306 15.6921C13.6745 16.2925 13.6003 16.9548 13.7173 17.597C13.8342 18.2392 14.1371 18.8329 14.5884 19.3045C15.0397 19.7761 15.6195 20.1048 16.2559 20.2499C16.8923 20.395 17.5573 20.35 18.1684 20.1205C18.7795 19.8911 19.3098 19.4873 19.6934 18.9592C20.0771 18.4311 20.2973 17.802 20.3266 17.1499V17.8166V16.9999C20.3266 16.1159 19.9754 15.268 19.3503 14.6429C18.7252 14.0178 17.8774 13.6666 16.9933 13.6666Z" fill="#C9EAD4" fill-opacity="0.59"/>
</svg>
