<svg width="36" height="34" viewBox="0 0 36 34" fill="none" xmlns="http://www.w3.org/2000/svg">
<path d="M34.9727 16.7265L19.8789 1.6406L18.8672 0.628883C18.6367 0.399885 18.325 0.271362 18 0.271362C17.6751 0.271362 17.3634 0.399885 17.1329 0.628883L1.02738 16.7265C0.791177 16.9618 0.604499 17.242 0.478368 17.5507C0.352238 17.8593 0.289211 18.19 0.293009 18.5234C0.308634 19.8984 1.45316 20.9961 2.82816 20.9961H4.48832V33.7187H31.5118V20.9961H33.2071C33.875 20.9961 34.5039 20.7344 34.9766 20.2617C35.2093 20.0297 35.3937 19.7539 35.5191 19.4501C35.6445 19.1464 35.7084 18.8208 35.7071 18.4922C35.7071 17.8281 35.4454 17.1992 34.9727 16.7265ZM20.1875 30.9062H15.8125V22.9375H20.1875V30.9062ZM28.6993 18.1836V30.9062H22.6875V22C22.6875 21.1367 21.9883 20.4375 21.125 20.4375H14.875C14.0118 20.4375 13.3125 21.1367 13.3125 22V30.9062H7.30082V18.1836H3.55082L18.0039 3.74216L18.9063 4.64451L32.4532 18.1836H28.6993Z" fill="white" fill-opacity="0.49"/>
</svg>
